<svg xmlns="http://www.w3.org/2000/svg" viewBox="0 0 1024 1024"><path fill="#49392C" d="M499.94092 121.9336c19.44806-.3848 19.44806-.3848 28.62158 1.6289 2.52715.52767 2.52715.52767 5.5.4375 2.61016 0 4.45756.30945 6.9375 1 1.58025.21192 3.16398.39923 4.75.5625l2.42187.2539c.60329.0606 1.20657.12118 1.82813.1836v2l14 1v2l3.5625.375c4.64492.5837 9.23138 1.4152 13.375 3.6875 2.21956 1.14627 2.21956 1.14627 5.5625 1.25 4.94835.49946 9.12573 2.49493 13.64453 4.47656C603.39848 142.169 606.5771 143.14428 610 144v2l2.25.4375c2.27028.46437 4.5076.98114 6.75 1.5625v2l1.75781.51563C625.78855 152.07631 629.66074 153.9428 634 157l2.17187.84375c3.7968 1.55228 7.27018 3.56204 10.82813 5.59375l2.11719 1.19727C652.77472 166.70852 656.40617 168.81703 660 171l1.83594-1.75781C667.53093 163.9327 673.14102 159.66899 680 156l2.91016-1.59375C689.45496 150.96073 695.79948 148.64617 703 147l1.84766-.54297c15.82865-3.36107 32.80008 1.78329 46.40234 9.91797 12.18635 8.67699 20.61179 20.60739 25.75 34.625v3l2 2c.42651 1.9519.42651 1.9519.66797 4.32422l.26758 2.61914.25195 2.74414c.09475.88623.1895 1.77246.2871 2.68555.8323 8.58341-.50616 15.6109-3.4746 23.62695l-.95703 2.75c-5.74353 15.26196-16.74901 27.82188-29.36719 37.9336-2.8692 2.02046-2.8692 2.02046-3.23828 4.8164.41683 2.54046.41683 2.54046 1.90625 4.53906 2.28758 4.08958 3.4337 8.34648 4.71875 12.83594l.7754 2.64453c1.11386 3.80835 2.20277 7.62346 3.2832 11.4414.56363 1.94892 1.18558 3.88244 1.8789 5.78907 1.15763 3.7623 1.8283 7.50359 2.4961 11.3789.47363 2.69866 1.00845 5.37631 1.5664 8.0586 2.2258 11.14671 2.2258 11.14671 1.375 16.0625-.5108 3.21079.0859 3.9705 1.5625 6.75.04 1.9996.04347 4.00047 0 6 1.40625 2.8125 3.09473 2.85234 6 4 18.72355 11.0459 36.79675 24.24834 52.78906 38.97266 1.95077 1.78877 3.94074 3.50577 5.96094 5.21484 10.302 9.03246 19.5354 18.82107 27.7295 29.7915 1.70626 2.26791 3.44454 4.50936 5.18456 6.75147 17.24554 22.37986 31.30228 46.53265 36.77686 74.52392.59845 2.93896 1.25882 5.8585 1.93408 8.78077l.79687 3.45117L901 538.0625l.82812 3.5879c1.32412 5.78516 1.32412 5.78516 2.73047 11.55053.36314 1.48005.63405 2.98242.87891 4.48657L906 560l2 1c3 4.5 3 4.5 3 7l2 1c.95827 1.45256 1.8651 2.93911 2.75 4.4375 3.35256 5.3963 7.11914 10.33542 11.0625 15.3125C960 630.88453 960 630.88453 960 646l2 1 1 7 2 1c.85156 2.14453.85156 2.14453 1.625 4.8125l.78906 2.64453C968 665 968 665 968 669l2 1c.61722 2.4482 1.12394 4.83196 1.5625 7.3125 1.06975 5.87593 1.06975 5.87593 2.4375 11.6875 1.37089 5.50498 2.29416 10.88522 2.7539 16.54297.21083 2.48165.21083 2.48165.73731 4.99487.6529 4.44285.78058 8.82879.8955 13.31372l.07736 2.83774c.05181 1.97167.10126 3.9434.14848 5.9152.07488 3.01764.1655 6.03456.2566 9.05175.04848 1.91925.09604 3.83852.14257 5.75781l.08806 2.73062.05134 2.54917c.0192.7369.03838 1.47382.05815 2.23306-.24222 2.39953-1.0888 3.958-2.20927 6.07309.00908 2.13784.00908 2.13784.4375 4.3125.5811 4.11496.27444 7.57409-.4375 11.6875v2.625c0 2.375 0 2.375-.5625 4.875-.64767 3.701-.14488 6.4092 1.91016 9.57813l1.71484 2.17187c3.32815 4.5702 5.80915 9.27053 8.1875 14.375l.99634 2.13379C995.92724 827.37187 1000.64794 844.26643 995 860v3h-2l-.125 2.375c-1.25345 5.19288-3.9992 9.17074-6.875 13.625l-1.21484 1.97656c-.86744 1.38135-1.81758 2.7103-2.78516 4.02344h-2l-.73047 1.73438c-7.72766 13.7909-27.54499 21.9021-41.9956 25.9807C924.60546 916.0633 910.97183 917.26369 898 915l-3-2c-2.34152-.3835-2.34152-.3835-4.875-.5-3.77743-.29692-6.6261-1.01562-10.125-2.5l-3 1c-2.72451-.922-5.34098-1.91686-8-3a719.42807 719.42807 0 0 0-4.6914-1.7539l-2.42383-.9004-2.44727-.9082-2.45898-.91992C852.35899 901.80623 847.75668 900.28334 843 899v-2l-3.5625-1c-8.08426-2.67333-15.83234-7.09735-23.01563-11.625-2.37722-1.45735-2.37722-1.45735-5.02734-2.21875-6.16418-2.09965-11.90715-5.25177-17.7207-8.16797C785.21417 869.7302 785.21417 869.7302 776 868c-2.62122 1.02484-2.62122 1.02484-4.6875 3.125-23.82422 19.2324-53.42636 27.20864-82.95074 32.40005-1.93274.34044-3.86384.69015-5.79487 1.04014-7.44135 1.2465-14.09695 1.58802-21.56689.43481v1c-21.85279 1.36085-43.73432 1.16458-65.61908 1.16726-3.29423.00071-6.58846.00286-9.88268.0055-11.50593.00919-23.01184.01334-34.51777.01254-10.71306-.0006-21.42606.01004-32.1391.02575-9.22932.01305-18.45861.01844-27.68793.0178-5.50004-.00026-11.00004.0026-16.50007.01318-5.15153.00964-10.30297.00978-15.4545.00248a1518.57991 1518.57991 0 0 0-5.67571.00736c-2.5749.00767-5.1495.00311-7.7244-.00463l-2.28412.01558c-3.72572-.02488-5.33027-.1399-8.51464-2.26282-2.34185-.12907-2.34185-.12907-4.9375.0625-11.101.14626-20.4264-3.02568-29.0625-10.0625-6-6.4294-6-6.4294-6-10-3.24607-.58661-3.24607-.58661-7 0-1.38187 1.5841-2.74956 3.18424-4.01953 4.85938-6.48812 7.0128-18.56015 14.3518-28.14844 15.37109C353.875 905.25 353.875 905.25 351 905v1c-4.0645.9704-7.86075 1.12672-12.03418 1.1294l-2.08646.0053c-2.2671.0044-4.53413.0015-6.80124-.00189-1.58555.00068-3.1711.00165-4.75665.0029-3.322.00147-6.644-.00066-9.966-.00534-4.2375-.00568-8.47494-.00243-12.71245.00357-3.27557.00364-6.55114.00246-9.82671-.00012a2432.22705 2432.22705 0 0 0-4.68346.00248c-15.76883.01846-15.76883.01846-23.13285-1.1363l-1-1-3.4375.5625L257 906l-2-2-3.9375-.25c-8.12468-.78373-14.84526-5.08266-20.4375-10.875-6.84774-8.39764-9.65851-17.15847-8.625-27.875.32163-2.11785.6643-4.2326 1.02734-6.34375l.55054-3.2246L224 853l-2.33029.00394c-18.73863.02924-37.47687.01977-56.21545-.0324-9.062-.02431-18.12368-.03567-27.1857-.01622-7.90141.01693-15.80235.00923-23.7037-.02767-4.18126-.01867-8.36172-.02528-12.54298-.00234-3.94191.02123-7.8824.00932-11.82419-.02715-1.44063-.00765-2.8814-.00356-4.32195.01365C76.22394 853.01822 70.1952 851.61194 63 845c-3.69275-3.80244-5.83131-8.27308-8.125-13l-1.05078-2.11719C49.2431 820.58016 49.2431 820.58016 48.5 815.75L48 813l-2-1c-.63281-1.74219-.63281-1.74219-1.125-3.875l-.50781-2.11719C43.76437 802.71158 44 799.34506 44 796l-2-1c-.08949-4.47428.14256-8.60564 1-13h-1c-.19965-3.79113-.38245-7.5829-.5625-11.375l-.16992-3.21484C40.9061 759.55399 40.75508 751.61794 43 744l1-1-.48755-1.80371c-.58217-2.4951-.33616-3.8707.28833-6.33691l.58447-2.39258L45 730c.3512-1.57734.69884-3.15548 1.04297-4.73438 5.47816-24.29184 14.28626-46.50147 25.64453-68.61328 1.39028-2.6568 1.39028-2.6568 2.3125-5.65234h2l.64844-2.32031c1.8735-5.10067 4.42531-9.76443 6.97656-14.55469a8430.40677 8430.40677 0 0 0 3.25781-6.19531l1.61035-3.05957c7.99904-15.236 14.06466-28.96305 16.00684-46.24512.47882-3.47142 1.39562-6.31187 2.5-9.625.33068-1.7884.6413-3.58057.9375-5.375.71917-4.17909 1.7614-7.89415 3.34766-11.8164 1.13419-2.86958 1.88688-5.83768 2.71484-8.8086 1.05858-3.37191 2.12245-6.74198 3.19531-10.10938.93878-2.87221.93878-2.87221.80469-5.89062h2v-6h2l.26953-1.96875c.98477-4.08654 2.67575-7.71652 4.41797-11.53125l1.07812-2.39209C128.83727 502.7356 129.91688 500.3671 131 498l.96338-2.10645A1776.12748 1776.12748 0 0 1 137 485h2l.6875-2c15.0631-34.42996 51.46481-65.36863 85.3125-80h2l-.0918-2.12036c-.13848-3.23062-.27336-6.46137-.4082-9.69214l-.14453-3.33398c-.43958-10.644-.69541-20.43178 1.64453-30.85352.50824-3.10589.94954-6.17027 1.14062-9.3125.55691-8.5055 2.59463-16.50698 4.85938-24.6875l.75928-2.75879C243.89807 287.3109 243.89807 287.3109 250 276l-2.13672-.71875c-3.36615-1.50627-5.83311-3.4371-8.67578-5.78125l-2.95703-2.40625L234 265v-2h-2v-2h-2c-5.70793-6.04218-12.90013-14.38828-14.53516-22.73047L215 236l-2-1c-.8164-2.10938-.8164-2.10938-1.5625-4.75l-.7539-2.60938c-.2256-.8714-.45118-1.7428-.6836-2.64062l-.60938-2.25781c-.5681-3.98813-.31416-7.85537-.07812-11.86719l.14038-2.55005c.3827-6.21097 1.14198-12.2542 2.54712-18.32495h2l.27734-2.07813c3.3575-13.5752 14.01087-24.69938 25.4917-31.87988C251.4436 149 251.4436 149 256 149l3.46094-.95313c5.02804-1.28481 9.99483-1.56925 15.16406-1.79687l2.77344-.16797c5.05558-.24109 8.843-.0152 13.60156 1.91797 2.11967.56215 4.24477 1.10428 6.375 1.625 1.0596.2604 2.11922.52078 3.21094.78906L303 151v2l2.01562.21484c4.07088 1.071 7.20544 3.09767 10.73438 5.34766l2.13867 1.34717C323.39583 163.45088 328.3502 167.37602 333 172c4.40758-1.51614 7.96363-3.91505 11.75-6.5625C367.2976 150.1157 392.91217 140.44032 419 133l2.96484-1.02344c3.5017-1.12667 6.99089-1.88093 10.59766-2.60156l3.8789-.78906C440 128 440 128 442.77735 128.03906c2.51522.1559 2.51522.1559 5.22266-2.03906 2.3623-.48657 2.3623-.48657 5.17187-.8164l3.167-.37574 3.41113-.37036c1.16435-.1293 2.3287-.25862 3.52832-.39185 12.21613-1.29607 24.3879-1.8349 36.6626-2.11206Z"/><path fill="#E9B473" d="M719 509c3.81629 1.54573 5.97026 3.88771 8.6875 6.9375l1.32251 1.48315C733.49481 522.48806 737.77822 527.7122 742 533l1.26855 1.57275C766.7919 563.75461 786.1838 596.29661 798 632l.69336 2.06445c6.62082 20.01779 10.3674 40.898 10.58008 61.9668l.03796 3.44682c.42452 47.82172-1.23006 98.24932-36.46374 134.6938-33.2585 33.4054-77.45558 42.80737-123.01758 42.94166-3.76632.00348-7.53253-.00548-11.29883-.01587-2.01737-.00187-4.03475-.0033-6.05212-.0043-5.25398-.00377-10.50794-.01356-15.7619-.0247-5.3836-.01031-10.76721-.01481-16.15082-.01983-10.52215-.01066-21.04428-.02768-31.56641-.04883-2.98011-7.18667-2.81-13.58176-.01172-20.875C573.23743 847.20015 581.23432 843.58772 590 840c3.3422-1.06087 6.51123-1.6839 10-2l2.20313-.21094c5.67784-.25106 11.04717.71544 16.60937 1.71094 12.2884 2.7672 12.2884 2.7672 24.0586.44531 2.8887-2.76596 4.05334-5.29048 4.5039-9.19531-.37323-3.73233-.98864-5.67128-3.57813-8.40625-4.55938-3.40963-10.31363-4.85734-15.82812-5.9375C619.61612 814.77017 614.49425 811.55083 609 805c-8.93005-13.8889-7.17752-31.5934-3.89844-47.14063 4.41986-18.98615 14.91214-34.96865 31.09766-46.11718 5.6847-3.53609 11.4917-6.09347 17.91016-7.98047l2.16723-.6399c1.40863-.40535 2.82255-.79284 4.2417-1.15966C665.18336 700.65092 667.3828 699.06407 670 695c1.55477-3.10953 1.28644-5.56267 1-9-2.12846-4.02886-3.78796-6.29959-8-8-15.83965-2.45898-34.09293 6.89942-46.52344 15.8086-22.15111 16.93708-35.53219 42.94997-39.28906 70.2539C575.25369 779.78717 573.4723 796.18817 580 811c.36238 1.32573.70676 2.65728 1 4l-3.11328 1.28516c-13.60793 5.71223-26.6871 11.45402-33.23047 25.625C540.18115 853.78513 540.61523 863.4649 540 877h-70c1.41328-3.5332 2.80987-6.52721 4.625-9.8125 2.41503-4.80148 3.09815-7.85428 2.375-13.1875-1.68075-3.86573-3.14771-5.4303-7-7-2.38105-.42528-2.38105-.42528-4.875-.4375l-2.49219-.1211c-4.8242 1.02354-7.5142 3.94839-10.22998 7.85767-1.68384 2.70728-3.30514 5.44197-4.90283 8.20093-6.75237 11.66026-6.75237 11.66026-12.5 15.5-4.3755.7032-6.38922.32268-10.3125-1.75-3.09006-2.58703-4.3757-4.43827-5.0586-8.40625-.28823-10.17309 3.9083-19.10782 10.37891-26.82813 4.53694-4.59031 9.85347-7.91026 15.53516-10.91015 10.14235-5.38302 15.1764-10.55617 18.7229-21.58032 5.46435-18.7954 6.73284-38.81986 8.54663-58.21265l.33636-3.57703c.31785-3.41515.62765-6.83091.93317-10.24719l.28331-3.10338c1.37242-10.7085 1.37242-10.7085-1.11534-20.8224-3.43945-3.91716-4.96269-4.4399-10.1875-4.9375-3.0611.09104-4.11394.40472-6.875 2-5.6427 6.12637-6.12754 13.11334-7.125 21.0625l-.50586 3.81616c-.93913 7.15334-1.77305 14.31705-2.56055 21.48853l-.24966 2.27247-.24936 2.27172A132590.3836 132590.3836 0 0 1 445 765.0625l-.2467 2.25278C441.87676 793.36972 441.87676 793.36972 438 805c-1.89844.88672-1.89844.88672-4.375 1.6875C416.64264 813.10736 406.78891 827.42218 399 843h-5l-.10425-2.04663c-.9923-18.38917-3.2096-36.37836-6.17944-54.53638-.61883-3.79296-1.21276-7.5894-1.7998-11.3874-2.37491-15.36109-4.87794-30.68362-8.04151-45.90459l-.69507-3.43677c-1.9736-9.69719-1.9736-9.69719-8.12134-17.09839-4.02821-1.1542-7.92872-1.26479-12.05859-.58984-2.82424 2.19023-4.41509 3.83017-6 7-.82175 7.97709.78245 15.85946 2.16467 23.6842.4082 2.31201.80621 4.62558 1.20154 6.93982.4244 2.48425.84934 4.96839 1.27707 7.45206 1.59822 9.2839 3.13101 18.57829 4.64893 27.87561.44598 2.72615.89618 5.45157 1.3467 8.17697.8144 4.95299 1.60207 9.90957 2.36109 14.87134l.3287 2.14243c1.47176 9.83293 2.0161 19.49215 1.98697 29.41397-.0032 2.27269.02057 4.54411.04566 6.81665.04138 9.57379-.42908 18.51917-5.29883 27.00195-7.08364 7.10407-16.36911 8.06489-25.85938 8.11328-3.98573-.01513-7.96835-.09114-11.95312-.17578a2724.8786 2724.8786 0 0 0-6.19531-.06836c-5.01897-.05464-10.0365-.14068-15.05469-.24414 1.2954-3.3338 2.71242-6.23014 4.625-9.25 2.5953-4.62841 3.4661-8.51073 2.375-13.75-2.22439-4.27404-2.22439-4.27404-6-7-2.23518-.27468-2.23518-.27468-4.75-.3125l-2.54688-.11328c-4.54624.7161-7.44967 2.76439-10.22216 6.4392-1.57954 2.41968-3.07385 4.87367-4.54346 7.36158C272.21619 874.8919 272.21619 874.8919 268 877c-5.20671.64508-8.8171.91735-13.0625-2.375-3.13483-4.2472-3.39732-7.4455-2.9375-12.625 2.45652-13.6348 11.82732-25.41767 22.91406-33.37354 2.64952-1.78701 5.31437-3.53335 8.04688-5.19116 3.81364-2.3609 6.26612-4.2689 8.03906-8.4353 2.54202-14.48954-3.1288-30.75653-6.30469-44.77734C281.39075 755.56759 278.99331 740.88942 277 726l-.34766-2.55615c-2.27109-16.92178-2.8669-33.88509-2.83984-50.94385l.00385-2.5422c.12596-44.31526 6.33604-87.69392 13.30879-131.39292.66617-4.18327 1.2855-8.37028 1.87486-12.56488 2.72267 1.29144 5.12378 2.71573 7.54688 4.5039 33.11659 24.11407 72.25023 38.1642 113.0078 42.47266l2.14628.23596c3.43526.37445 6.8654.70819 10.31125.96814 9.03494.90409 9.03494.90409 11.88086 3.6377 1.25584 2.0178 2.17249 4.00237 3.10693 6.18164 5.62857 6.5173 12.9319 10.61425 21.60196 11.27415 1.34952.0208 2.69924.03094 4.04892.03225l2.24963.02522c2.44207.024 4.88388.03286 7.32605.03947 1.71146.00898 3.42292.0181 5.13437.02736 3.58593.01647 7.17176.02419 10.75772.02709 4.566.00536 9.1311.04299 13.69683.08874 3.53651.02994 7.0728.03698 10.60943.03798 1.68152.00418 3.36304.01648 5.04444.03752 13.10662.15087 23.62568-1.48141 33.8119-10.55072 1.98198-2.10353 1.98198-2.10353 2.96094-5.63281 1.02441-1.8413 1.02441-1.8413 2.75781-3.40625 4.39623-1.22257 8.8124-1.60804 13.3447-1.95032 3.87507-.29685 7.73846-.70921 11.60452-1.10437l2.3514-.23169C604.78391 570.65852 624.471 565.35102 644 559l2.42871-.78467c24.59762-8.11198 45.0525-22.76918 64.07129-40.02783l1.52979-1.38257C714.66429 514.38006 716.965 511.94936 719 509Z"/><path fill="#E9B473" d="M660.8125 208.5c38.1954 33.61997 64.49123 80.35265 71.81396 130.9746.37782 2.55434.8207 5.0918 1.26807 7.63477 2.21355 13.63585 2.39638 27.23585 2.41797 41.01563l.01086 2.81232c.0304 14.62743-.86387 28.3887-5.07336 42.50018l-.79517 2.70898C723.91883 457.91365 713.70282 476.47328 698 493l-1.4414 1.54004C671.19222 521.51208 636.60895 535.16358 601 543l-2.05273.45752C587.88394 545.85595 577.2995 546.35682 566 546c.50119-4.02754 1.00635-8.05412 1.53516-12.07813C570.3436 516.66087 570.3436 516.66087 567 500c-2.57179-1.62135-4.14204-2.24422-7-3-12.68597-3.89036-23.81718-9.08466-34.5-16.9375l-1.99512-1.44727c-5.97495-4.54914-11.3693-10.1748-13.31738-17.61523l-.64453-2.3125c-1.36876-6.77485-1.67837-13.30138-1.60547-20.1875l.01367-2.49219c.01165-2.00263.02957-4.00523.04883-6.00781l3.29688-1.0664c19.8296-6.5827 38.0471-18.01233 48.33203-36.9297 4.3109-9.24818 6.40957-18.72503 3.5703-28.86327C558.31975 352.34206 548.68504 346.26385 538 342c-27.76436-9.31608-63.5005-10.0112-90.41797 2.60156-9.09535 4.94878-15.43287 10.87648-18.92187 20.76953C426.40678 374.3446 428.141 382.71673 432 391c2.3816 3.92453 5.07714 7.46453 8 11l2.16797 2.6289C452.80719 416.96288 465.56652 425.0017 481 430c.10007 3.94678.17203 7.89305.21973 11.84082.02962 1.99082.0805 3.9813.13183 5.97168.09873 9.77379-.99144 17.5414-7.47656 25.125-12.29054 11.34689-29.7428 20.34524-45.9414 23.8125-3.10654 1.029-3.10654 1.029-4.8125 3.8125-1.39667 4.28247-1.57025 7.96217-1.4961 12.4375l.01758 2.59277c.19959 10.23449 1.725 20.31749 3.35742 30.40723-41.51826 1.60543-89.4782-14.97416-120.625-42.8125-1.46074-1.39332-2.91929-2.78893-4.375-4.1875-1.349-1.1519-2.70302-2.29798-4.0625-3.4375C269.39556 472.21198 258.20459 437.45685 256 403c-2.38747-54.45712 10.45346-111.51484 43-156l1.31982-1.8252C306.32302 236.92588 312.96542 229.36956 320 222l2.42578-2.58594C360.182 180.23658 416.09444 159.53941 469 153l2.38647-.3103c66.38283-7.7471 138.68575 12.06553 189.42603 55.8103Z"/><path fill="#AAAAA9" d="M232 433c.8562 2.3064.8562 2.3064 1.54297 5.3711l.802 3.40283.84253 3.66357c4.83148 19.67923 12.66911 39.71542 26.625 54.8125 3.12856 4.26622 3.523 7.18102 2.9607 12.26123-.7593 4.86487-1.76517 9.67046-2.7732 14.48877-.95437 4.86816-1.86137 9.74447-2.75 14.625l-.37735 2.0463c-2.91005 15.9331-4.79434 31.99924-6.68515 48.0787l-.46301 3.91827c-.44083 3.75061-.87537 7.50187-1.30652 11.2536l-.39064 3.36503c-1.4572 12.91321-2.18417 25.71397-2.1953 38.7092-.00323 1.40462-.0066 2.80925-.01008 4.21388-.00594 2.927-.00785 5.85398-.00725 8.78099a1892.6517 1892.6517 0 0 1-.02051 8.84472C247.71423 688.32751 248.04172 705.59312 250 723l.4104 3.95093c2.23387 20.5686 6.34478 40.71676 10.69165 60.92334l.4361 2.02896c.32919 1.4945.67011 2.98645 1.01892 4.4765l.55572 2.39249.51316 2.16215C264 801 264 801 264 805c-1.98438 1.53516-1.98438 1.53516-4.75 3.0625-4.6818 2.70391-7.97217 5.66138-11.64325 9.60555-5.54526 5.40096-10.41817 6.71847-18.19014 6.70057a3127.18585 3127.18585 0 0 1-4.37462-.11984 791.24885 791.24885 0 0 0-4.70476.00487c-4.22166.00313-8.43983-.06114-12.66068-.13832-4.42404-.06917-8.84818-.07525-13.27268-.08828-8.36208-.03407-16.72256-.12417-25.08393-.23484-9.52587-.12332-19.05182-.18352-28.57829-.23865C121.16021 823.43885 101.58021 823.2456 82 823c-.63852-1.58004-1.2754-3.16073-1.91162-4.7417l-1.07529-2.6672c-16.7545-42.85151-6.9171-89.2182 10.43222-130.09696 3.90445-8.7752 8.43202-17.22826 13.01758-25.6621 2.32186-4.2779 4.58585-8.58571 6.84961-12.89454l1.21973-2.31274c3.328-6.32116 6.5857-12.67469 9.72949-19.0896 1.01701-2.06832 2.05274-4.12797 3.13281-6.16407 6.61327-13.07956 9.24161-28.39113 11.54297-42.74609C142.03651 533.19901 160.18093 493.51261 191 462l2.3711-2.5586C199.83684 452.62675 222.11985 429.70663 232 433ZM763 395c4.91604 2.64947 9.06543 5.5062 13.25 9.1875a2816.76176 2816.76176 0 0 0 3.4375 2.96875l1.70313 1.47266c2.24164 1.90974 4.55178 3.7294 6.85937 5.55859 7.97275 6.50954 15.34504 13.67244 22.75 20.8125l2.4121 2.30908C824.3686 447.83493 834.2558 458.56588 843 471l1.38477 1.93604C850.92484 482.12384 856.45044 491.66698 861 502l1.44531 3.25317c3.702 8.60792 5.96994 17.06648 7.65528 26.2677.68738 3.72872 1.43362 7.44557 2.18066 11.16272l.44092 2.19938c3.96645 19.51853 10.4334 36.03967 23.04443 51.58627 34.55652 42.88784 52.5562 86.66911 52.4834 141.96826l-.00208 2.25946C948.2222 749.17209 947.97028 757.57094 947 766c-4.98638-1.09048-8.67752-3.85016-12.92969-6.60156C923.86286 753.179 913.22221 748.6812 901.875 745l-1.92987-.63434c-19.10344-6.26542-38.60532-10.93763-58.3592-14.6391C838 729 838 729 836 728l-.04419-3.99707c-.05892-4.9952-.13613-9.99-.21826-14.98486a1404.74838 1404.74838 0 0 1-.08399-6.42871C835.49806 688.47504 834.5576 674.88839 832 661l-.60083-3.35547c-.5075-2.68463-1.05957-5.35183-1.64917-8.01953l-.63574-2.8767C818.24189 599.26993 794.47178 556.55944 764 519a28534.41193 28534.41193 0 0 1-3.14453-3.89844C753.25476 505.69216 745.68192 496.44443 737 488l1.53906-3.04297c1.82268-3.61289 3.6234-7.23636 5.41797-10.86328.88565-1.77792 1.7904-3.5463 2.69922-5.3125 4.5109-9.11776 7.10294-18.67968 9.7168-28.47021.54763-2.01864 1.1384-4.02548 1.73632-6.02979C761.52498 421.69749 761.83575 407.95461 763 395Z"/><path fill="#AAAAA9" d="M232 433c.8562 2.3064.8562 2.3064 1.54297 5.3711l.802 3.40283.84253 3.66357c4.83148 19.67923 12.66911 39.71542 26.625 54.8125 3.12856 4.26622 3.523 7.18102 2.9607 12.26123-.7593 4.86487-1.76517 9.67046-2.7732 14.48877-.95437 4.86814-1.86416 9.74398-2.75 14.625l-.37936 2.08154C251.41854 585.05794 247.93437 627.06748 246 669c-3.1379-.54987-5.82889-1.23338-8.6875-2.63672l-2.0857-.9917L233 664.3125c-10.02655-4.61132-20.31461-7.63408-31-10.3125l-3.14063-.8125c-9.70006-2.14235-23.92973-3.75632-32.82788 1.45459-6.78948 4.5383-12.3413 10.63762-17.84399 16.60791a5823.47717 5823.47717 0 0 1-4.22266 4.5039c-1.86616 1.99386-3.7296 3.98916-5.57373 6.00342C131.95448 688.78364 125.91036 693.5118 117 697l-2.46484 1.02344C105.14778 701.25637 94.78988 700.26584 85 700c.59912-5.22798 2.28116-9.4528 4.4375-14.1875l1.06885-2.3733c3.74233-8.18381 7.94082-16.11272 12.20263-24.0349 6.01514-11.20217 11.95681-22.45082 17.55274-33.86914 1.01701-2.06832 2.05274-4.12797 3.13281-6.16407 6.61327-13.07956 9.24161-28.39113 11.54297-42.74609C142.03651 533.19901 160.18093 493.51261 191 462l2.3711-2.5586C199.83684 452.62675 222.11985 429.70663 232 433Z"/><path fill="#865C3D" d="M833 755c41.76792 6.50047 93.9735 19.90262 120.625 55.6875C963.11474 823.75023 968.25815 836.83782 966 853c-2.84608 10.85409-10.56576 19.89915-19.88672 25.83984-19.64098 10.50087-40.60036 8.41656-61.34375 2.52686-15.87606-4.82572-30.61458-12.61712-45.1958-20.40894-6.85797-3.64017-13.8228-7.03943-20.82373-10.39526l-3.21143-1.54028C810.40035 846.57304 805.25443 844.18935 800 842l.9961-1.47656c1.67806-2.50118 3.34025-5.01265 5.0039-7.52344l2.1914-3.25781C813.27184 822.09885 817.41038 814.47433 821 806c20.27962 2.93127 38.97871 16.5434 55.43799 27.95947C880.4313 836.61961 884.31704 836.59851 889 836c3.4989-2.11392 4.70579-3.11736 6-7 .80383-5.74167-.55986-9.07781-3.86328-13.61328-12.62934-14.107-32.1068-23.39577-50.21875-27.66016-4.0638-1.01187-7.9666-2.34358-11.91797-3.72656.77082-6.34613 1.6505-12.67274 2.5625-19l.41992-2.92578c.33855-2.35817.67776-4.71624 1.01758-7.07422Z"/><path fill="#AAAAA9" d="M232 433c.8562 2.3064.8562 2.3064 1.54297 5.3711l.802 3.40283.84253 3.66357c4.83148 19.67923 12.66911 39.71542 26.625 54.8125 3.13221 4.2712 3.52238 7.18781 2.95923 12.27344-.578 3.69925-1.30076 7.35772-2.0686 11.02197-1.27884 6.28318-2.33016 12.60792-3.42792 18.92477-.39312 2.23942-.79635 4.47675-1.20343 6.71366C256.81592 556.10643 255.6446 562.98787 255 570l-1-2c-1.74381-.47666-1.74381-.47666-3.9375-.75-4.39754-.76973-8.40998-2.02516-12.59253-3.53589-12.4583-4.73108-12.4583-4.73108-25.27173-2.96557C207.24603 563.13419 202.6238 566.03959 198 569c-2.66544 1.68944-5.33238 3.3765-8 5.0625l-1.98584 1.25952C170.13316 586.53438 154.33379 592.43112 133 589c6.80672-48.0104 23.78102-92.01097 58-127l2.3711-2.5586C199.83684 452.62675 222.11985 429.70663 232 433Z"/><path fill="#FEDEAE" d="m429 360 1 2-.9375 2.4375C426.3199 373.63325 428.00325 382.42106 432 391c2.3816 3.92453 5.07714 7.46453 8 11l2.16797 2.6289C452.80719 416.96288 465.56652 425.0017 481 430c.10007 3.94678.17203 7.89305.21973 11.84082.02962 1.99082.0805 3.9813.13183 5.97168.09873 9.77379-.99144 17.5414-7.47656 25.125-12.29054 11.34689-29.7428 20.34524-45.9414 23.8125-3.15796 1.02482-3.15796 1.02482-4.77344 4.0625-1.00304 2.75581-1.73435 5.29198-2.16016 8.1875-9.47373-.93896-17.44635-2.81046-26-7l-2.83984-1.34375C376.89759 492.95005 366.39059 480.15089 361 464c-5.55946-18.6625-2.04111-37.8911 6.75-54.875 3.65508-6.6835 8.20944-12.4212 13.25-18.125l1.51563-1.91406C393.12151 375.73714 412.03505 362.94509 429 360Z"/><path fill="#FEDDAE" d="M564 363c16.98468 4.94792 29.58445 12.4105 42 25l2.3086 2.27734c13.92985 14.58155 22.25003 35.7547 22.11303 55.79395C629.85077 464.02987 623.14261 479.6224 610 492c-10.59916 9.17995-26.79036 16.7287-41 16l-.36401-1.85889c-1.12505-4.81914-1.12505-4.81914-4.34546-8.3335-2.18304-.81016-4.33703-1.39692-6.60303-1.93261a545.04182 545.04182 0 0 1-4.91797-1.4375l-2.4585-.71484c-9.17848-2.8701-17.11717-8.02365-24.81103-13.66016l-1.99658-1.44775C517.5296 474.0645 512.13557 468.44038 510.1875 461l-.64453-2.3125c-1.36876-6.77485-1.67837-13.30138-1.60547-20.1875l.01367-2.49219c.01165-2.00263.02957-4.00523.04883-6.00781l3.29688-1.0664c19.8296-6.5827 38.0471-18.01233 48.33203-36.9297 2.48795-5.3374 4.51377-10.17 4.46875-16.11327l-.00977-2.28516-.02539-2.35547-.01367-2.40234c-.01174-1.94926-.02968-3.89847-.04883-5.84766Z"/><path fill="#888886" d="M818 608c26.83158 4.91912 46.27479 23.868 64.60376 42.67651 14.34287 14.64987 29.67963 26.51025 50.70874 27.88599l3.80078.2539c.95262.0606 1.90524.12118 2.88672.1836l1-2c5.5428 20.20165 7.2775 40.55437 7.25 61.4375l-.00208 2.25946C948.2222 749.17209 947.97028 757.57094 947 766c-4.98638-1.09048-8.67752-3.85016-12.92969-6.60156C923.86286 753.179 913.22221 748.6812 901.875 745l-1.92987-.63434c-19.10344-6.26542-38.60532-10.93763-58.3592-14.6391C838 729 838 729 836 728l-.04419-3.99707c-.05892-4.9952-.13613-9.99-.21826-14.98486a1404.74838 1404.74838 0 0 1-.08399-6.42871C835.49806 688.47504 834.5576 674.88839 832 661l-.60083-3.35547c-.5075-2.68458-1.06037-5.3517-1.64917-8.01953l-.62036-2.83936c-2.59074-11.4038-5.87657-22.88983-10.33667-33.71533C818 611 818 611 818 608Z"/><path fill="#AAAAA9" d="M763 395c4.91604 2.64947 9.06543 5.5062 13.25 9.1875a2816.76176 2816.76176 0 0 0 3.4375 2.96875l1.70313 1.47266c2.24164 1.90974 4.55178 3.7294 6.85937 5.55859 7.97275 6.50954 15.34504 13.67244 22.75 20.8125l2.4121 2.30908C824.3686 447.83493 834.2558 458.56588 843 471l1.38477 1.93604C850.92589 482.12532 856.44439 491.66819 861 502l1.43213 3.19165c4.22062 9.89105 6.50684 19.69516 8.44287 30.24585.30852 1.6181.6184 3.23594.92969 4.85352.74752 3.90018 1.4767 7.80337 2.19531 11.70898-4.12935-.93114-7.73324-2.67467-11.5-4.5625l-2.15088-1.07788c-7.398-3.78392-14.17411-8.3215-20.88818-13.20728-15.66659-11.31475-32.9165-16.39983-52.21485-16.1875a1482.01314 1482.01314 0 0 1-4.33789-.01757c-2.2413-.01057-4.47941-.00962-6.72046.02856-12.4788.18967-12.4788.18967-16.63916-2.6477-1.78186-2.01884-3.1767-4.01599-4.54858-6.32813l-2.08203-2.61719-1.73047-2.25781C746.86898 497.6611 742.0106 492.82579 737 488l1.53906-3.04297c1.82268-3.61289 3.6234-7.23636 5.41797-10.86328.88565-1.77792 1.7904-3.5463 2.69922-5.3125 4.5109-9.11776 7.10294-18.67968 9.7168-28.47021.54763-2.01864 1.1384-4.02548 1.73632-6.02979C761.52498 421.69749 761.83575 407.95461 763 395Z"/><path fill="#D29457" d="M807 726h1c1.24602 10.61052.60147 20.08145-1.0625 30.5625l-.34506 2.24802c-5.31148 34.40106-18.01025 65.35908-46.6896 86.82522-37.17619 26.6539-76.71836 31.5852-121.37159 31.46192-2.01737-.00187-4.03475-.0033-6.05212-.0043-5.25398-.00377-10.50794-.01356-15.7619-.0247-5.3836-.01031-10.76721-.01481-16.15082-.01983-10.52215-.01066-21.04428-.02768-31.56641-.04883-2.98011-7.18667-2.81-13.58176-.01172-20.875C573.23743 847.20015 581.23432 843.58772 590 840c3.3422-1.06087 6.51123-1.6839 10-2l2.20313-.21094c5.67784-.25106 11.04717.71544 16.60937 1.71094 13.16153 2.8783 13.16153 2.8783 25.375-.6875 1.66098-2.57739 2.72543-4.96314 3.8125-7.8125l3.69336-.06006c4.59995-.0771 9.19963-.16564 13.79932-.25732a1905.08825 1905.08825 0 0 1 5.9287-.1045C707.00522 830.00041 739.32782 822.39928 767 799l2.28125-1.92578C788.46737 779.34279 799.26268 750.21356 807 726Z"/><path fill="#898987" d="M246 669v-13h1v41c-4.6923-.78205-7.48174-1.46287-11.63281-3.36328l-3.19531-1.43945-3.29688-1.50977c-15.63824-7.14702-31.05853-14.08912-48.15845-7.73413-7.5097 3.17972-13.17785 7.549-18.91577 13.2732C157.48088 700.50428 152.78853 704.26294 148 708l-2.38281 1.86719C138.60479 715.0744 130.975 718.54746 123 722l-2.2461 1c-1.90012.78457-3.78245 1.41628-5.7539 2l-2.8164.83984C101.4344 728.59377 86.6995 730.5665 76 727c1.23186-9.83366 4.55944-18.77107 8-28l1.79736.06348c17.4202.53268 32.71338-.1754 46.57813-12.10791 2.32524-2.22916 4.57837-4.50976 6.81201-6.83057l2.2871-2.3164c4.13482-4.21716 8.11755-8.53531 11.96827-13.01319C177.40006 637.17215 218.46604 656.05669 246 669Z"/><path fill="#CF8F52" d="M454.93213 828.38647c9.6299.8072 19.24472.84428 28.9038.92994 1.9754.02062 3.9508.04161 5.92619.06297 5.15203.0547 10.3041.10433 15.4562.15285 5.27622.0506 10.55238.10608 15.82855.16113 10.31767.10694 20.63538.20852 30.95313.30664l-1.4777 2.28801c-.63593.99059-1.27187 1.98118-1.92709 3.00178l-1.91519 2.97551C539.4664 850.00746 540.61167 863.5433 540 877h-70c1.41328-3.5332 2.80987-6.52721 4.625-9.8125 2.41503-4.80148 3.09815-7.85428 2.375-13.1875-1.68075-3.86573-3.14771-5.4303-7-7-2.38105-.42528-2.38105-.42528-4.875-.4375l-2.49219-.1211c-4.8242 1.02354-7.5142 3.94839-10.22998 7.85767-1.68384 2.70728-3.30514 5.44197-4.90283 8.20093-6.75237 11.66026-6.75237 11.66026-12.5 15.5-4.3755.7032-6.38922.32268-10.3125-1.75-3.09006-2.58703-4.3757-4.43827-5.0586-8.40625-.28829-10.17504 3.91334-19.06979 10.35157-26.8125 3.6089-3.62983 7.71156-6.3071 12.01953-9.03125l1.70312-1.35547c3.75884-2.78116 6.6422-2.7192 11.229-2.25806ZM283.16357 826.82715l3.78806.11224c1.3677.05632 2.73539.11299 4.10306.16998 1.42127.04806 2.84259.09477 4.26394.1402 3.75685.12388 7.51275.26669 11.26877.41327 3.7374.1424 7.4754.26616 11.21338.39185C333.53861 828.59213 349.27134 829.23897 365 830c.25878 3.93612.47645 7.87355.6875 11.8125l.2207 3.33398c.44054 8.78482-.41218 16.50562-4.8457 24.22852-7.08364 7.10407-16.36911 8.06489-25.85938 8.11328-3.98573-.01513-7.96835-.09114-11.95312-.17578a2724.8728 2724.8728 0 0 0-6.19531-.06836c-5.01897-.05464-10.0365-.14068-15.05469-.24414 1.2954-3.3338 2.71242-6.23014 4.625-9.25 2.5953-4.62841 3.4661-8.51073 2.375-13.75-2.22439-4.27404-2.22439-4.27404-6-7-2.23518-.27468-2.23518-.27468-4.75-.3125l-2.54688-.11328c-4.54624.7161-7.44967 2.76439-10.22216 6.4392-1.57954 2.41968-3.07385 4.87367-4.54346 7.36158C272.21619 874.8919 272.21619 874.8919 268 877c-5.20671.64508-8.8171.91735-13.0625-2.375-3.13483-4.2472-3.39732-7.4455-2.9375-12.625 2.42552-13.46275 11.1982-23.11383 21-32l1.7742-1.63373c2.96977-1.82295 4.92102-1.66295 8.38937-1.53912Z"/><path fill="#D69B5C" d="M377 724c2.8006 2.74874 5.4403 5.48817 7.875 8.5625C399.7598 749.68487 421.3765 760.25124 443 766c1.45016 8.2289.34504 15.32676-1.375 23.4375l-.71094 3.54492c-1.698 8.36937-1.698 8.36937-2.91406 12.01758-1.89844.88672-1.89844.88672-4.375 1.6875C416.64264 813.10736 406.78891 827.42218 399 843h-5l-.10425-2.04663c-.99166-18.3772-3.20172-36.35918-6.17065-54.50562-.63217-3.864-1.24815-7.73042-1.85987-11.59771C383.17543 757.84802 380.40336 740.87668 377 724Z"/><path fill="#8A8A88" d="M240.36743 537.43604C245.75127 540.00055 251.167 541.72669 257 543c.90667 3.67591.98794 6.56246.4414 10.30078l-.41992 2.95899-.45898 3.05273-.44727 3.11133c-.3643 2.52657-.73627 5.05176-1.11523 7.57617l-1-2c-1.74381-.47666-1.74381-.47666-3.9375-.75-4.39754-.76973-8.40998-2.02516-12.59253-3.53589-12.4583-4.73108-12.4583-4.73108-25.27173-2.96557C207.24603 563.13419 202.6238 566.03959 198 569c-2.66544 1.68944-5.33238 3.3765-8 5.0625l-1.98584 1.25952C170.13316 586.53438 154.33379 592.43112 133 589c.61432-3.91842 1.2433-7.83435 1.875-11.75l.52734-3.36719.52735-3.24219.47607-2.9834c.56162-2.51135 1.33182-4.42833 2.59424-6.65722v2c20.53268 1.37906 31.84277-5.88248 48.14063-17.54297 19.39663-13.86396 30.84436-18.8767 53.2268-8.021Z"/><path fill="#898987" d="M255 762h1l.51904 2.61108a21473.58119 21473.58119 0 0 0 1.93457 9.71192c.2777 1.39348.55505 2.78704.83203 4.18066 1.85457 9.38073 1.85457 9.38073 3.90967 18.719C264 801 264 801 264 805c-1.98438 1.53516-1.98438 1.53516-4.75 3.0625-4.6818 2.70391-7.97217 5.66138-11.64325 9.60555-5.54526 5.40096-10.41817 6.71847-18.19014 6.70057a3127.18585 3127.18585 0 0 1-4.37462-.11984 791.24885 791.24885 0 0 0-4.70476.00487c-4.22166.00313-8.43983-.06114-12.66068-.13832-4.42404-.06917-8.84818-.07525-13.27268-.08828-8.36208-.03407-16.72256-.12417-25.08393-.23484-9.52587-.12332-19.05182-.18352-28.57829-.23865C121.16021 823.43885 101.58021 823.2456 82 823l-1-3 2.07646.01346c6.51518.04038 13.03033.07067 19.54561.09016 3.34814.01036 6.6961.02548 10.04419.04726 3.86518.0245 7.73021.03566 11.59546.04443l3.57487.03128c11.79878.00157 22.4751-1.30773 33.22591-6.28909l2.70557-1.20752a821.32411 821.32411 0 0 0 5.53418-2.50098c2.55432-1.16366 5.11753-2.30405 7.68603-3.43603C217.97586 789.98727 217.97586 789.98727 254 765l1-3Z"/><path fill="#888886" d="M850 509c2.1839 1.31848 4.37125 2.63128 6.5625 3.9375l2.8164 1.71484c2.89522 1.63992 2.89522 1.63992 7.6211 2.34766l7 35c-4.1567-1.03918-7.6972-2.65661-11.5-4.5625l-2.15088-1.07788c-7.398-3.78392-14.17411-8.3215-20.88818-13.20728-15.66659-11.31475-32.9165-16.39983-52.21485-16.1875a1482.01314 1482.01314 0 0 1-4.33789-.01757c-2.2413-.01057-4.47941-.00962-6.72046.02856-12.4768.18964-12.4768.18964-16.62597-2.63672-1.7815-2.0214-3.178-4.03192-4.56177-6.33911l-2.29297-2.79297-1.89453-2.39453-1.91797-2.41797L747 498c-1.33248-1.66735-2.66558-3.3342-4-5 2.31154-.48424 4.62407-.96244 6.9375-1.4375l3.90234-.8086c34.71787-6.55895 66.2521.06953 96.16016 18.2461Z"/><path fill="#BD8151" d="M294.25 180.64844c5.48051 3.1376 10.69945 6.56364 15.75 10.35156-.56154 3.79702-2.12489 5.44481-4.86719 8.05469l-2.41821 2.34082-2.5896 2.47949C285.65343 218.052 274.55145 233.76597 264 251c-11.78115-5.21194-18.06783-16.12258-22.875-27.4375-3.63497-10.0906-2.84178-17.6535 1.33984-27.48438 4.92072-9.86647 12.24112-16.28922 22.58985-20.24609 10.07119-2.84504 20.09737.20183 29.19531 4.8164Z"/><path fill="#48392B" d="M381.0625 287.9375C390.04005 292.90797 395.04563 300.3357 398 310l.58203 1.8789c1.86924 9.48594 1.02565 19.92244-3.8711 28.33594-4.48073 6.43358-9.81426 10.95222-17.61327 12.5C369.4413 353.75565 363.73137 353.0099 357 349c-6.7422-5.51634-11.24961-13.2673-12.22046-21.97803-.69434-12.2516.72657-22.58102 8.72046-32.37353 7.57869-8.32866 17.19331-11.3071 27.5625-6.71094Z"/><path fill="#BD8151" d="M713.39453 175.6875c10.3765-.50463 18.04755 1.44932 25.94922 8.36328 8.38126 8.80345 12.045 18.22327 11.9336 30.24219-.98878 13.2161-8.93966 22.68394-17.91016 31.73828-2.33987 1.94603-3.48734 2.3826-6.36719 2.96875l-.89526-1.56616C714.26068 226.85612 700.23469 207.4513 683 191c8.00411-8.6372 18.71681-14.23745 30.39453-15.3125Z"/><path fill="#48382B" d="M631.74219 289.45703c6.9189 4.72832 10.7549 11.76329 12.83984 19.78125C646.30483 320.62163 646.07855 331.93031 640 342c-3.7229 4.58202-8.3645 8.1215-14 10-9.07544.82611-16.46035.42855-24-5-7.0273-6.72176-10.06205-15.7016-10.29321-25.24414-.10147-12.52575 1.93846-20.33205 10.87134-29.61523 8.78374-7.7637 19.06049-8.33716 29.16406-2.6836Z"/><path fill="#FBF8EA" d="M507 496c5.01786 3.34524 9.68235 6.46859 14.375 10.125 7.17081 5.25257 14.78557 8.08927 23.625 8.875-.63915 8.60267-2.20725 16.93416-3.90137 25.37842-.47502 2.37854-.93555 4.75961-1.3955 7.14111a4017.09412 4017.09412 0 0 1-.91407 4.58984l-.40756 2.13105c-1.14001 5.57113-2.6443 10.11146-6.819 14.07208C524.07657 573.24226 516.24704 571 507 571v-75Z"/><path fill="#FCF9EC" d="M482 497c.26221 8.46712.5231 16.93428.7823 25.4015.12042 3.93227.2413 7.86452.3632 11.79674.1178 3.79955.23437 7.59912.35014 11.39873.04422 1.44477.08887 2.88952.13397 4.33426.21898 7.02396.43342 14.0406.37039 21.06877-3.3747.1169-6.74888.18748-10.125.25l-2.88281.10156c-6.04546.08397-9.37057-.36486-13.99219-4.35156-2.28085-2.28085-2.47663-3.29649-3.14502-6.38623l-.60623-2.7512-.63156-2.97976-.66403-3.05667c-.46239-2.1361-.92112-4.273-1.3765-6.41061-.6977-3.272-1.4077-6.54114-2.11963-9.81006a8867.72495 8867.72495 0 0 1-1.33984-6.22266l-.64383-2.9675-.58713-2.77029-.52005-2.43112C445 519 445 519 445 515l2.27344-.48047c12.18227-2.77707 20.99982-8.18622 30.91797-15.50781C481 497 481 497 482 497Z"/><path fill="#F0EDE6" d="m447.60997 903.86629 2.69683-.00687c2.99402-.00635 5.988-.0055 8.98202-.00468 2.1417-.003 4.28342-.0064 6.42512-.01018 5.82636-.00885 11.6527-.01118 17.47906-.01182 4.85859-.00095 9.71718-.00462 14.57577-.00817 11.45916-.00815 22.9183-.01058 34.37747-.00987 11.83392.0006 23.6678-.00996 35.5017-.02575 10.14952-.01306 20.29901-.01844 30.44853-.0178 6.06655.00026 12.13306-.00262 18.1996-.01318 5.70364-.00965 11.40721-.00977 17.11086-.00248a1863.68557 1863.68557 0 0 0 6.28878-.00736c2.85588-.00768 5.71147-.0031 8.56734.00463l2.52887-.01558c3.86477.02321 6.9387.04894 10.20808 2.26282-21.86364 1.36202-43.75636 1.16458-65.65202 1.16726-3.29623.00071-6.59245.00286-9.88868.0055-11.51126.00919-23.0225.01334-34.53376.01254-10.72103-.0006-21.442.01004-32.16302.02575-9.2344.01304-18.46877.01844-27.70317.0178-5.50392-.00026-11.0078.0026-16.5117.01318-5.154.00963-10.3079.00979-15.4619.00248a1522.85906 1522.85906 0 0 0-5.6818.00736c-2.57525.00765-5.1502.00312-7.72544-.00463l-2.29295.01558c-5.15728-.03454-5.15728-.03454-7.38556-2.26282 3.8845-1.29484 7.56161-1.1412 11.60997-1.13371Z"/><path fill="#F0EDE7" d="m67 847 3.08436.9826c3.57185 1.01567 6.83855 1.2775 10.5659 1.29587l3.93026.03383c1.4197.00237 2.83939.00454 4.25908.00655 1.5084.0093 3.01681.01947 4.5252.03044 4.08003.02722 8.16002.04243 12.2401.05543 4.26949.01566 8.5389.04244 12.80832.06803 8.07813.04673 16.15626.0835 24.23445.11667 9.19955.03826 18.39902.08766 27.59851.13798 18.91789.10324 37.83582.19253 56.75382.2726-.92969 7.65625-.92969 7.65625-1.5625 10.75-1.1834 8.79097-.74307 15.87342 2.78516 24.07031L229 887l-1 2c-6.18789-10.10688-6.99017-18.78277-4.98438-30.33203l.55567-3.22974L224 853l-2.34146-.00444c-18.80396-.03706-37.60773-.09606-56.41153-.17946-9.0934-.0398-18.18673-.0722-27.28021-.0871-7.9262-.013-15.8522-.03995-23.7783-.08361-4.19656-.02263-8.3929-.0383-12.58954-.03727-3.95145.00074-7.90238-.01717-11.8537-.04929-1.44875-.0085-2.89757-.01024-4.34634-.00463-1.98164.00665-3.96332-.01366-5.94485-.03522l-3.35756-.01117C72.26732 851.87985 70.03193 850.3704 67 848v-1Z"/><path fill="#F1EFEB" d="m143 477 1 2c-.69336 1.64136-.69336 1.64136-1.84375 3.60547l-1.26807 2.20605L139.5 487.1875c-17.37024 30.59634-27.59812 64.75617-33.38525 99.36108C104.71449 594.59707 102.48783 601.61385 99 609l-.99072 2.1123c-.87294 1.80868-1.78441 3.5986-2.69678 5.3877a8831.11491 8831.11491 0 0 0-2.07422 4.08594l-1.09521 2.15136c-1.21534 2.40575-2.40966 4.8211-3.6001 7.23926C83.67232 639.85111 78.61537 649.52604 73 659l-2-1 3-7h2l.64844-2.32031c1.8735-5.10067 4.42531-9.76443 6.97656-14.55469a8430.44529 8430.44529 0 0 0 3.25781-6.19531l1.61035-3.05957c7.99904-15.236 14.06466-28.96305 16.00684-46.24512.47882-3.47142 1.39562-6.31187 2.5-9.625.33068-1.7884.6413-3.58057.9375-5.375.71917-4.17909 1.7614-7.89415 3.34766-11.8164 1.13419-2.86958 1.88688-5.83768 2.71484-8.8086 1.05858-3.37191 2.12245-6.74198 3.19531-10.10938.93878-2.87221.93878-2.87221.80469-5.89062h2v-6h2l.26953-1.96875c.98477-4.08654 2.67575-7.71652 4.41797-11.53125l1.07813-2.39209C128.83727 502.7356 129.91688 500.3671 131 498l.96338-2.10645A1776.12748 1776.12748 0 0 1 137 485h2l.875-2.3125C141 480 141 480 143 477Z"/><path fill="#F1EFEC" d="M931 596c3.73586 3.5138 6.49846 7.00311 9.25 11.375l1.15552 1.8357c1.20613 1.92492 2.40063 3.85674 3.59448 5.7893l1.19092 1.9038C960 639.00863 960 639.00863 960 646l2 1 1 7 2 1c.85156 2.14453.85156 2.14453 1.625 4.8125l.78906 2.64453C968 665 968 665 968 669l2 1c.61722 2.4482 1.12394 4.83196 1.5625 7.3125 1.06975 5.87593 1.06975 5.87593 2.4375 11.6875 1.37089 5.50498 2.29416 10.88522 2.7539 16.54297.21073 2.4813.21073 2.4813.73731 4.99267.65429 4.45507.78067 8.85385.8955 13.35108l.07736 2.84492a2550.0273 2550.0273 0 0 1 .14848 5.92778c.07496 3.02863.16554 6.05654.2566 9.08472.04848 1.9225.09603 3.84503.14257 5.76758l.08806 2.74626.05134 2.5494c.0192.73912.03838 1.47826.05815 2.23978C979 757 979 757 977 760c-1-1-1-1-1.08179-4.10083.0136-1.38962.03214-2.7792.05445-4.1687.01467-1.5341.02872-3.0682.04223-4.6023l.0253-2.44491C976.3077 714.75682 972.60225 686.49719 963 658l-.72217-2.1499c-4.89171-14.30583-11.67857-27.37985-19.40283-40.3501l-1.48682-2.49902c-2.84227-4.69113-5.8671-9.09535-9.28222-13.38965C931 598 931 598 931 596Z"/><path fill="#F1EDE7" d="m276.76611 903.74121 2.35654-.01062c2.56598-.00879 5.13168-.00298 7.69766.00378a8200.97035 8200.97035 0 0 0 5.34934-.0058c3.73401-.00294 7.46793.00134 11.20193.01069 4.79318.0114 9.58613.00482 14.3793-.00715 3.6802-.00721 7.36035-.00493 11.04056.00026 1.7679.00134 3.5358-.00031 5.30369-.00496 2.46598-.00506 4.9316.00264 7.39755.0138l2.226-.01227c5.05279.04253 5.05279.04253 7.28132 2.27106-4.0645.9704-7.86075 1.12672-12.03418 1.1294l-2.08646.0053c-2.2671.0044-4.53413.0015-6.80123-.00189-1.58556.00068-3.1711.00165-4.75666.0029-3.322.00147-6.644-.00066-9.966-.00534-4.2375-.00568-8.47494-.00243-12.71245.00357-3.27557.00364-6.55114.00246-9.82671-.00012a2432.24323 2432.24323 0 0 0-4.68346.00248c-7.7716.0091-15.42402-.04449-23.13285-1.1363 3.74362-2.43168 7.45687-2.28267 11.76611-2.25879Z"/><path fill="#F1F0ED" d="M528.5625 123.5625c2.52715.52767 2.52715.52767 5.5.4375 2.61016 0 4.45756.30945 6.9375 1 1.58025.21192 3.16398.39923 4.75.5625l2.42188.2539c.60328.0606 1.20656.12118 1.82812.1836v2l14 1v2l3.5625.375c5.00625.62134 9.66004 2.03251 14.4375 3.625l-1 2-2.14185-.5791c-13.34053-3.56836-26.55728-6.8001-40.23315-8.7959l-3.21216-.46973c-13.01897-1.78673-26.02974-2.3869-39.16284-2.40527l-2.14178-.00607C480.25845 124.7344 466.7059 125.99235 453 128c-1.4036.19952-2.80724.39878-4.21094.59766L446 129l1-3c2.62487-.31364 5.24989-.62593 7.875-.9375l2.20313-.26367c50.09279-5.93204 50.09279-5.93204 71.48437-1.23633Z"/><path fill="#F4F2F0" d="m250 276 2 1-1.03125 2.14844C233.19329 318.19772 228.10137 360.58964 229 403l-12 6v-2c1.28913-.67155 2.5814-1.33709 3.875-2l2.17969-1.125C225 403 225 403 227 403l-.0918-2.12036c-.13848-3.23062-.27336-6.46137-.4082-9.69214-.0477-1.10021-.0954-2.20043-.14453-3.33398-.43958-10.644-.69541-20.43178 1.64453-30.85352.50824-3.10589.94954-6.17027 1.14063-9.3125.5569-8.5055 2.59462-16.50698 4.85937-24.6875l.75928-2.75879C243.89807 287.3109 243.89807 287.3109 250 276Z"/><path fill="#EFEDE9" d="M445 128c-3.26987 2.17991-5.67081 2.7782-9.48438 3.66406a4620.1125 4620.1125 0 0 0-3.98828.94849l-2.11377.49844C395.59867 141.14451 362.72258 153.5644 335 175c-3.9597-1.6723-7.01612-4.36305-10.25-7.125l-1.67969-1.41797C321.71053 165.30825 320.35485 164.1546 319 163c4.70437 0 7.08536 3.25968 10.52734 6.25 2.51195 2.13513 2.51195 2.13513 6.47266 1.75 2.02543-.9561 2.02543-.9561 4.01953-2.34375l2.32373-1.51636L344.8125 165.5C367.89334 150.59426 392.60253 140.52863 419 133l2.96484-1.02344c3.5017-1.12667 6.99089-1.88093 10.59766-2.60156l3.8789-.78906c2.95422-.48643 5.57962-.71173 8.5586-.58594Z"/><path fill="#EBE8E4" d="m219 178 1 2c-.89063 2.14453-.89063 2.14453-2.25 4.8125-6.90187 14.78422-8.17066 31.56443-2.75 47.04297 5.40436 14.15027 5.40436 14.15027 16 24.14453 1.8086 1.76172 1.8086 1.76172 3.4375 3.6875l1.78125 2.10547C238.90849 265.12566 241.48398 268.5347 244 272c-3.93952-1.84986-6.78322-4.07565-10-7v-2h-2v-2h-2c-5.70793-6.04218-12.90013-14.38828-14.53516-22.73047L215 236l-2-1c-.8164-2.10938-.8164-2.10938-1.5625-4.75l-.7539-2.60938c-.2256-.8714-.45118-1.7428-.6836-2.64062l-.60938-2.25781c-.5681-3.98813-.31416-7.85537-.07812-11.86719l.14038-2.55005c.3827-6.21097 1.14198-12.2542 2.54712-18.32495h2l.25-2.0625c.97333-3.8122 2.70807-6.5782 4.75-9.9375Z"/><path fill="#F4F2EF" d="M978 795c3.56481 3.18372 5.75688 6.74273 7.9375 10.9375l1.04932 2.00513c7.40748 14.42682 14.0768 33.02256 8.99756 49.31518L995 860v3h-2l-.125 2.375c-1.23854 5.13108-3.82974 9.33579-6.875 13.625l-2 1c1.26905-3.32176 2.72635-6.38689 4.4375-9.5 7.57025-15.18529 7.46564-32.51006 2.3164-48.4087-2.80457-7.7798-6.31048-15.62906-11.0039-22.45849C978 797 978 797 978 795Z"/><path fill="#F2F0ED" d="M878 475c2.18673 2.02722 3.6223 3.87556 4.9375 6.54688l1.02344 2.0625L885 485.75l1.03906 2.09375c5.47147 11.11 9.04198 22.25559 11.39746 34.40845.60639 2.95705 1.29919 5.88413 2.0088 8.81811l.82421 3.46485a1586.5073 1586.5073 0 0 0 1.73438 7.20312l.8164 3.45703.7583 3.15674C904 551 904 551 903 554c-3.55581-9.99089-5.86129-19.9705-7.875-30.375-3.14193-15.91804-8.3074-29.69664-15.83984-44C878 477 878 477 878 475Z"/><path fill="#F0EEEA" d="m964 898 2 1c-19.64463 13.41868-44.16927 20.3226-68 16l-2-2c2.70973-1.35486 4.763-1.06127 7.79297-.99219 20.3664.3308 39.41654-.53832 57.01953-11.94531L964 898Z"/><path fill="#F2F1EE" d="m69 662 2 1-1.65234 3.27734C57.25053 690.7424 49.66907 716.15367 45 743c-1.29553-2.1563-2.04326-3.4722-1.83472-6.0166l.573-2.12402.61182-2.39258L45 730a634.9398 634.9398 0 0 0 1.04297-4.73438C51.0629 703.00575 58.67937 682.34732 69 662Z"/><path fill="#F9F8F6" d="M971 680h1c.47678 2.1455.9529 4.29113 1.42578 6.4375.3601 1.60697.73087 3.21163 1.11719 4.8125 1.13023 4.75886 1.81471 9.417 2.21094 14.29297.21072 2.4813.21072 2.4813.7373 4.99267.65429 4.45507.78067 8.85385.8955 13.35108l.07736 2.84492a2550.0273 2550.0273 0 0 1 .14848 5.92778c.07496 3.02863.16554 6.05654.2566 9.08472.04848 1.9225.09603 3.84503.14257 5.76758l.08806 2.74626.05134 2.5494c.0192.73912.03838 1.47826.05815 2.23978C979 757 979 757 977 760c-1-1-1-1-1.08179-4.10083.01362-1.38962.03216-2.7792.05445-4.1687.01448-1.53475.02837-3.0695.04174-4.60425l.02524-2.44516c.1652-18.02175-.57693-35.4076-4.07406-53.13101-.76216-3.91173-1.10126-7.56612-.96558-11.55005Z"/><path fill="#F2F0ED" d="M743 281h2c1.9912 4.69079 3.48091 9.51692 5 14.375l.78906 2.5c1.15458 3.67365 2.28826 7.349 3.33594 11.05469.55864 1.96024 1.17843 3.90474 1.875 5.82031 1.15763 3.7623 1.8283 7.50359 2.4961 11.3789.47363 2.69866 1.00845 5.37631 1.5664 8.0586 2.4716 12.35795 2.4716 12.35795.9375 17.8125h-1l-.37964-2.34473C755.77503 326.11242 750.50294 303.67467 743 281Z"/><path fill="#F3F1EF" d="M745 153c3.09594 1.87412 6.0697 3.87729 9 6-3.2465 0-5.03418-.8956-7.88428-2.33765-15.51332-7.84308-33.25227-10.59497-50.17822-5.72876C690.45585 152.92361 685.21555 155.40063 680 158c1-3 1-3 3.84375-4.5L687.5 152l3.59375-1.5c1.29982-.50586 2.60203-1.0056 3.90625-1.5l2.15137-.8335C712.88906 142.43903 730.23865 145.88631 745 153Z"/><path fill="#EDEBE7" d="M815 882c1.9628.93077 3.92556 1.8616 5.88818 2.79272a2465.5167 2465.5167 0 0 0 5.18457 2.44776c4.00674 1.88808 8.00422 3.78314 11.9546 5.78686C851.4777 899.75765 865.74927 904.28806 880 909l-3 2c-2.76889-.88882-5.3313-1.87166-8-3a506.72747 506.72747 0 0 0-4.6914-1.7539l-2.42383-.9004-2.44727-.9082-2.45898-.91992C852.35899 901.80623 847.75668 900.28334 843 899v-2l-3.5625-1c-6.06144-1.99796-11.50838-5.10005-17.08203-8.16016-2.43318-1.33414-4.861-2.62716-7.35547-3.83984v-2Z"/><path fill="#B3ADA9" d="M826 411c4.82506 2.5226 8.33046 5.98643 12.125 9.8125l1.9895 1.9956C846.31087 429.13038 851.69355 435.93084 857 443c1.327 1.67171 2.65803 3.34028 4 5l-1 2c-4.62747-3.60218-8.15229-7.39998-11.6875-12.0625l-1.43164-1.85352c-1.86752-2.4228-3.71365-4.86024-5.54492-7.31054-4.09175-5.43174-8.5296-9.98248-13.79688-14.29297L826 413v-2Z"/><path fill="#EDEBE7" d="m776 195 3 1c.36843 3.18602.71712 6.3739 1.0625 9.5625l.31445 2.7129C781.96611 223.23537 776.34137 239.25656 767 251c0-3.87076 1.61356-6.47485 3.375-9.8125 5.40744-10.2983 6.79836-19.30283 6.75-30.8125l.01172-2.8125-.0039-2.72656-.00343-2.45166c-.13783-2.53985-.57466-4.90481-1.12939-7.38428Z"/><path fill="#F0EEEC" d="m302 151 1 2 2.0625.3125c4.20628.98445 7.3831 3.29733 10.9375 5.6875l-2 1c-1.80665-.8212-3.57143-1.7351-5.3125-2.6875C292.47386 148.93286 273.76776 146.21637 256 151v-2c15.68717-4.32564 30.80874-4.03732 46 2Z"/><path fill="#F5F4F1" d="M445 128c-3.28261 2.1884-5.72686 2.79909-9.55469 3.69922-1.34162.32204-2.68317.6444-4.02466.96704l-2.1271.50516c-11.59384 2.75916-22.97529 5.73888-34.18564 9.83322-5.82019 2.09127-5.82019 2.09127-9.10791.99536 19.09243-7.23725 19.09243-7.23725 27.67969-9.39063 2.2475-.59025 4.38614-1.31952 6.57031-2.10937 7.72072-2.6435 16.57085-4.8278 24.75-4.5Z"/><path fill="#F0EEEB" d="M583 136c6.3775.36793 11.31134 2.23103 17.14453 4.78906C603.39848 142.169 606.5771 143.14428 610 144v2l2.25.4375c2.27028.46437 4.5076.98114 6.75 1.5625v2l1.79297.55078C625.2125 151.95668 629.1254 153.37528 633 156l-2 1c-1.84985-.66162-1.84985-.66162-4.1289-1.77344l-2.60279-1.23828-2.83081-1.36328c-9.66234-4.55118-19.4652-8.31806-29.57446-11.75537l-3.07007-1.05713-2.73364-.91797C584 138 584 138 583 136Z"/><path fill="#F5F4F2" d="m219 178 1 2c-.89063 2.14453-.89063 2.14453-2.25 4.8125-6.20013 13.28106-7.85824 27.87591-4.08984 42.13672.38363 2.31502.05482 3.83584-.66016 6.05078-3.0382-7.79367-4.17895-13.77204-3.6875-22.125l.14038-2.55005c.3827-6.21097 1.14198-12.2542 2.54712-18.32495h2l.25-2.0625c.97333-3.8122 2.70807-6.5782 4.75-9.9375Z"/><path fill="#D1CCC7" d="m43 744 2 1-1 36-2 1c-.19965-3.79113-.38245-7.5829-.5625-11.375l-.16992-3.21484C40.90194 759.46354 40.92094 751.72662 43 744Z"/><path fill="#F6F3E3" d="m510 498 5 4-5-1v54h-1c-.02313-7.28422-.04092-14.56842-.05181-21.85267-.00523-3.38205-.01233-6.76407-.02363-10.1461-.0129-3.88453-.01779-7.76904-.02222-11.65357l-.01564-3.69628-.00023-3.39723-.00672-3.00792C509 499 509 499 510 498Z"/><path fill="#F5F3F0" d="M224 850h3c-.91589 7.58879-.91589 7.58879-1.5625 10.75-1.1834 8.79097-.74307 15.87342 2.78516 24.07031L229 887l-1 2c-6.86863-11.21876-6.81449-20.77283-4.4375-33.4336.52152-2.62538.52152-2.62538.4375-5.5664Z"/><path fill="#EDEAE6" d="M894 516c3 2 3 2 3.76782 4.34741l.54859 2.92993.62695 3.24805.61914 3.41211.63086 3.30664C900.81 536.49361 901.4082 539.74592 902 543l.59717 3.27002c.4695 2.57632.93719 5.15296 1.40283 7.72998-2.95352-2.95352-3.43184-6.61985-4.4375-10.5625l-.66089-2.54419C896.81911 532.66891 895.3192 524.37635 894 516Z"/><path fill="#F1EEEA" d="M976 761h1c.82667 5.60861.9753 10.36494 0 16v2.625c0 2.375 0 2.375-.5625 4.875-.49282 2.81612-.09138 4.73916.5625 7.5v3c-2.04297-1.75-2.04297-1.75-4-5-.24872-4.04694.22456-7.97989.6875-12l.31836-3.27344c.46625-4.63392 1.0247-9.16842 1.99414-13.72656Z"/><path fill="#EFEDEA" d="M761 353c2.10823 3.42588 2.08615 6.03726 2 10 .82331 2.20026.82331 2.20026 3.10938 2.84375 3.68396 1.47359 6.82217 3.50133 10.14062 5.65625l1.92969 1.22266c4.69504 3.0268 4.69504 3.0268 5.82031 5.27734-4.8398-1.66398-8.90533-4.32269-13.1875-7.0625a5026.46921 5026.46921 0 0 0-4.29297-2.72266l-1.90307-1.21508C762.96638 365.94563 762.96638 365.94563 761 365c-.44922-2.46875-.44922-2.46875-.6875-5.5l-.26172-3.03125L760 354l1-1Z"/><path fill="#F3C27F" d="m284 823 1 3 32 1v1h-39c4-4 4-4 6-5Z"/><path fill="#392C23" d="M704 486c0 4.21227-2.37561 5.97603-5.125 8.875l-1.4375 1.5664c-3.26047 3.4984-6.71138 6.56223-10.4375 9.5586l-2-1 19-19Z"/><path fill="#EEECE9" d="m253 149 2 2-3.14844 1.46875c-7.68256 3.66429-14.54673 7.3486-21.03125 12.96484C229 167 229 167 227 168c3.74284-9.43029 17.38627-14.61782 26-19Z"/><path fill="#342319" d="M487 125v1c-10.10342 1.96797-19.74686 2.22103-30 2 5.87621-5.87621 21.95803-3.08485 30-3Z"/><path fill="#B1B1B0" d="M763 516c4.48403-.04952 8.96792-.08578 13.45215-.10986a956.83373 956.83373 0 0 0 4.57422-.04102c2.19438-.02432 4.38851-.03562 6.583-.04443l3.99903-.03174C795 516 795 516 799 518h-32l-1 3c-1.5-1.375-1.5-1.375-3-3v-2Z"/><path fill="#EFEBE5" d="M391.6875 880.9375c4.29923 1.379 5.37701 3.30624 7.5625 7.11719L400 890l-1 2c-4-4.75-4-4.75-4-7-3.24607-.58661-3.24607-.58661-7 0-2.38682 2.06582-4.20049 4.41609-6 7l-2-1c6.5575-8.58436 6.5575-8.58436 11.6875-10.0625Z"/><path fill="#EBBE78" d="M645 310c2.37155 4.7431 2.33296 7.9445 2.3125 13.125l.04883 2.4961.00195 2.38671.00903 2.17627C647 332 647 332 644 334l1-24Z"/><path fill="#9F9791" d="M229 256c2 0 2 0 3.51563 1.46875C236.53772 262.17933 240.3604 266.98723 244 272c-3.93952-1.84986-6.78322-4.07565-10-7v-2h-2v-2h-2l-1-5Z"/><path fill="#785437" d="M394 843h5l-3 12h-2v-12Z"/><path fill="#E4A562" d="M806 745h1c.26619 6.95041-.38795 13.23514-2 20-2-3-2-3-2-7h2l-.625-2.5625c-.43343-3.9731.34872-6.68375 1.625-10.4375Z"/><path fill="#DEAD67" d="M645 562c-1.74468.70088-3.49601 1.38524-5.25 2.0625l-2.95313 1.16016c-2.83694.78848-4.09097.80172-6.79687-.22266 1-2 1-2 3.14453-2.92188l2.66797-.82812 2.64453-.85938c2.94352-.45215 4.07973.02464 6.54297 1.60938Z"/><path fill="#433122" d="m253 811 2 1c-1.57699 1.63116-3.16184 3.25471-4.75 4.875l-2.67188 2.74219C245.38363 821.64543 243.7333 822.8888 241 824c1.55003-3.88398 4.00477-6.0298 7.125-8.75l2.75781-2.42188L253 811Z"/><path fill="#E7E4E0" d="M943 909v2l-16 4-1-3c2.45788-.50234 4.91625-1.00197 7.375-1.5l2.11719-.4336C940.77344 909 940.77344 909 943 909Z"/><path fill="#594230" d="m273 639 2 1c.08082 1.95766.1391 3.91627.1875 5.875l.10547 3.30469L275 652l-3 2c-.02694-2.12493-.04637-4.24996-.0625-6.375l-.03516-3.58594C272 641 272 641 273 639Z"/><path fill="#F3F0ED" d="M45 802c2.70933 2.70933 3.06271 5.25387 4.0625 8.9375C50.44024 815.99638 50.44024 815.99638 52 821h-2c-1.25665-2.906-2-4.79605-2-8l-2-1c-.66797-1.77734-.66797-1.77734-1.1875-3.9375l-.54297-2.15234C44 804 44 804 45 802Z"/><path fill="#71665E" d="M241 268c4.0442 1.77945 7.46078 4.3953 11 7-1.83594.64063-1.83594.64063-4 1-2.87031-2.46027-4.90326-4.8549-7-8Z"/><path fill="#EEEBE7" d="M988 814h2c.86992 2.0559 1.72038 4.12005 2.5625 6.1875l1.4414 3.48047c1.01146 3.38342 1.03893 5.0162-.0039 8.33203h-1l-.58594-2.41406c-1.932-7.87251-1.932-7.87251-4.41406-15.58594Z"/><path fill="#755136" d="m829 779 1.6875 2c2.15312 2.25492 2.15312 2.25492 5.0625 2.25L838 783v3l-9-2v-5Z"/><path fill="#C2BCB7" d="M380 893c-1.60091 1.15037-3.20585 2.29515-4.8125 3.4375l-2.70703 1.9336C370 900 370 900 367 901v-2l1.875-.8125c2.42452-1.14307 2.42452-1.14307 4.125-4.1875 4.5-2.25 4.5-2.25 7-1Z"/><path fill="#E6E3DE" d="M43 783h1l1 12h-3c-.0816-4.16138.01751-7.94725 1-12Z"/><path fill="#F0C078" d="M444 755h1c.0543 1.74965.09293 3.4998.125 5.25l.07031 2.95313c-.19668 2.81652-.74962 4.40636-2.19531 6.79687v-4l-3-1h2l2-10Z"/><path fill="#928A84" d="M861 450c5.57143 5.14286 5.57143 5.14286 6 9-3.16116-1.36984-3.9927-1.98906-6-5v-4Z"/><path fill="#F8F6F3" d="M761 353c2.10823 3.42588 2.08615 6.03726 2 10l1 2 3 1c-2 1-2 1-4.07422.41016C761 365 761 365 760.35547 362.43359l-.16797-2.99609-.20703-3.0039C760 354 760 354 761 353Z"/><path fill="#E3DFD9" d="m522 123 1 2h-11v-2c3.57257-1.23666 6.35527-.89093 10 0Z"/><path fill="#F9F9F6" d="M110 559c1.26977 3.80931.52075 5.81619-.4375 9.6875l-.8711 3.57422L108 575l-2-1c.65272-3.51706 1.51393-6.89325 2.5625-10.3125l.8164-2.67578L110 559Z"/><path fill="#F0EEEA" d="M977 748c2.49389 4.98777 1.88836 6.66983 1 12l-2-1 1-11Z"/><path fill="#999998" d="m84 699 14 1v1l-2.51953.11328-3.29297.19922-3.26953.17578C85.82502 702.03068 84.86977 702.5529 83 705l1-6Z"/><path fill="#F4F3EF" d="m67 847 13 3c-2 2-2 2-4.25 2.375-3.68452-.50243-5.83347-2.13673-8.75-4.375v-1Z"/><path fill="#F6F4F1" d="m43 744 2 1c-.11352 1.81326-.24113 3.62563-.375 5.4375-.0696 1.00934-.13922 2.01867-.21094 3.0586L44 756l-2 1c-.02687-1.9791-.04633-3.95829-.0625-5.9375l-.03516-3.33984C42 745 42 745 43 744Z"/><path fill="#B4AEA9" d="M854 441c2.96405 2.80804 5.44499 5.18316 7 9-1.17747-.73292-2.34177-1.48704-3.5-2.25l-1.96875-1.26563L854 445v-4Z"/><path fill="#E9E6E2" d="M976 761h1c.19491 1.45736.3807 2.91595.5625 4.375l.3164 2.46094C978 770 978 770 977 772h-2l1-11Z"/><path fill="#DBA967" d="M564 575h5l-1 3-10 1v-2l6-1v-1Z"/><path fill="#F1EFEA" d="m746 270 2 1-2 1.6875c-2.25492 2.15312-2.25492 2.15312-2.25 5.0625L744 280c-1.5625-1.25-1.5625-1.25-3-3 .0625-2 .0625-2 1-4 2.0625-1.75 2.0625-1.75 4-3Z"/><path fill="#7D593C" d="M391 875h2l1 6h-5l2-6Z"/><path fill="#3C2E24" d="M650 679v2l-9 1c1.8566-3.7132 5.30635-3.09983 9-3Z"/><path fill="#503F31" d="m266 148 10 1c-4.2163 2.10815-6.3979 2.177-11 2l1-3Z"/><path fill="#F9E4B6" d="m429 360 1 2c-.9375 2.125-.9375 2.125-2 4h-2v-4l-2-1 5-1Z"/><path fill="#382F26" d="m291 847 3 1c-5.75 5-5.75 5-8 5 1.36984-3.16116 1.98906-3.9927 5-6Z"/><path fill="#966840" d="M394 843h5l-2 5-3-2v-3Z"/><path fill="#CC9457" d="m380 730 4 2v2h-2l-1 2h-2l1-6Z"/></svg>